<?xml version="1.0" encoding="UTF-8"?>
<svg version="1.1" xmlns="http://www.w3.org/2000/svg" width="994" height="955">
<path d="M0 0 C2 2 2 2 2.4375 5.6875 C1.92797356 24.39011763 -11.28632304 42.87337618 -23.82421875 55.89453125 C-24.21222656 56.25933594 -24.60023438 56.62414062 -25 57 C-24.10539062 57.04898438 -23.21078125 57.09796875 -22.2890625 57.1484375 C-15.03660879 57.59688346 -8.07404867 58.32113591 -1 60 C-0.67 61.65 -0.34 63.3 0 65 C-0.51796143 65.26627197 -1.03592285 65.53254395 -1.56958008 65.80688477 C-16.12951984 73.3104616 -16.12951984 73.3104616 -30 82 C-30.53399414 82.36029297 -31.06798828 82.72058594 -31.61816406 83.09179688 C-54.03277338 98.27059147 -76.48622307 119.37219959 -82.53125 146.71875 C-85.55597601 167.89183205 -79.69102253 185.93573421 -70.14477539 204.60131836 C-67.58585527 209.66171466 -65.37859174 214.80882594 -63.25 220.0625 C-60.24276922 227.44747002 -56.75474232 234.46775364 -53 241.5 C-42.69360266 260.87370371 -33.09418221 280.8376591 -34.375 303.25 C-34.47917581 305.21093701 -34.5833423 307.17187452 -34.6875 309.1328125 C-34.74164062 310.11411133 -34.79578125 311.09541016 -34.8515625 312.10644531 C-34.99067165 314.81815847 -35.09638777 317.52849247 -35.1875 320.2421875 C-35.8823805 339.56367295 -40.43879318 351.88662677 -54 366 C-54.75023437 366.81339844 -55.50046875 367.62679688 -56.2734375 368.46484375 C-66.40440435 379.1175049 -78.79244005 386.94755983 -91 395 C-126.45132258 418.45300033 -152.34815248 446.22227114 -170 485 C-169.3296875 485.23589844 -168.659375 485.47179687 -167.96875 485.71484375 C-164.96905704 487.01339504 -162.35347817 488.5563527 -159.58349609 490.2746582 C-144.73887949 499.45034986 -128.65693266 505.90824946 -112 511 C-107.40054349 502.11627816 -103.19290491 493.26560553 -99.56640625 483.9375 C-88.9944126 456.9944126 -88.9944126 456.9944126 -84 452 C-81.66702567 451.95907063 -79.33294775 451.95758277 -77 452 C-75.74566542 455.76300374 -75.89304578 459.27210909 -75.9375 463.1875 C-75.94201172 463.93708984 -75.94652344 464.68667969 -75.95117188 465.45898438 C-75.96293646 467.30602383 -75.98087135 469.15302213 -76 471 C-75.01 470.67 -74.02 470.34 -73 470 C-69.34239396 469.65014875 -65.67037141 469.53417427 -62 469.375 C-60.4840625 469.29765625 -60.4840625 469.29765625 -58.9375 469.21875 C-57.968125 469.17492187 -56.99875 469.13109375 -56 469.0859375 C-54.6696875 469.0247876 -54.6696875 469.0247876 -53.3125 468.96240234 C-51 469 -51 469 -48 470 C-46.616305 473.36132287 -46.88605012 476.93102673 -46.90234375 480.515625 C-46.90556641 481.76601563 -46.90878906 483.01640625 -46.91210938 484.3046875 C-46.92048828 485.60664062 -46.92886719 486.90859375 -46.9375 488.25 C-46.94201172 489.56742188 -46.94652344 490.88484375 -46.95117188 492.2421875 C-46.96295684 495.49483741 -46.97940989 498.74739584 -47 502 C-46.22269531 502.14308594 -45.44539063 502.28617188 -44.64453125 502.43359375 C-42.12213994 502.97384004 -40.24195912 503.75446715 -38 505 C-38.33162847 507.98880961 -38.62428528 509.60235702 -40.71923828 511.81958008 C-46.23360816 515.87582912 -51.84477182 519.44751098 -57.875 522.6875 C-58.80538086 523.19152344 -59.73576172 523.69554687 -60.69433594 524.21484375 C-103.06079749 546.72855696 -103.06079749 546.72855696 -113 545 C-114.81958139 544.09128598 -116.63756759 543.1792639 -118.44824219 542.25292969 C-123.2541717 539.89318703 -128.19305518 537.8271169 -133.11105347 535.71368408 C-135.10046282 534.85868451 -137.08859096 534.00076585 -139.07641602 533.14208984 C-142.42351993 531.69659321 -145.77148828 530.25311285 -149.11975098 528.81030273 C-153.89416306 526.75274594 -158.66663593 524.69076835 -163.4375 522.625 C-164.36554443 522.22555176 -165.29358887 521.82610352 -166.24975586 521.41455078 C-170.40515168 519.61509089 -174.51911772 517.77423974 -178.57421875 515.7578125 C-179.26652588 515.41669434 -179.95883301 515.07557617 -180.67211914 514.72412109 C-182.46951925 513.82755572 -184.25493051 512.90706111 -186.0390625 511.984375 C-188.88606652 510.74756758 -188.88606652 510.74756758 -191.40625 511.58203125 C-192.2621875 512.04996094 -193.118125 512.51789062 -194 513 C-195.24605529 513.61600037 -196.49358485 514.22902324 -197.7421875 514.83984375 C-199.81066273 515.88594642 -201.87603175 516.93802563 -203.94140625 517.99023438 C-205.95407043 519.0080674 -207.97472683 520.00752542 -210 521 C-211.13695312 521.55816406 -212.27390625 522.11632812 -213.4453125 522.69140625 C-217.69567923 524.25610169 -221.50538687 524.71914276 -226 525 C-227.29381592 525.08145264 -227.29381592 525.08145264 -228.61376953 525.16455078 C-231.42943153 525.32094851 -234.24488405 525.44674648 -237.0625 525.5625 C-238.07111084 525.60640869 -239.07972168 525.65031738 -240.11889648 525.69555664 C-245.28807835 525.90571273 -250.43712141 526.03690497 -255.61010742 525.96289062 C-258.74048166 525.92218049 -261.86967666 525.96637676 -265 526 C-266.21042969 525.97164062 -267.42085937 525.94328125 -268.66796875 525.9140625 C-274.19519259 526.14310776 -278.1943092 526.84515672 -282.1171875 530.875 C-284.82155909 534.02857525 -287.19455561 537.38548249 -289.51904297 540.82519531 C-290.99607307 542.99423325 -292.53346022 545.10410123 -294.09765625 547.2109375 C-308.37005479 565.44277048 -308.37005479 565.44277048 -313.8984375 587 C-311.61779743 600.57776411 -296.01545288 611.0317234 -285.53808594 618.51782227 C-275.58693464 625.2435667 -264.13418149 628.27462222 -252.49487305 630.70849609 C-249.11548726 631.42236563 -246.91552695 632.05631537 -244 634 C-243.75150424 636.77191102 -243.67316591 639.29887388 -243.75 642.0625 C-243.75515625 642.80822266 -243.7603125 643.55394531 -243.765625 644.32226562 C-243.84589574 649.84589574 -243.84589574 649.84589574 -245 651 C-247.18750054 651.0207768 -249.37555119 650.99084021 -251.5625 650.9375 C-257.13323556 650.88628793 -261.71088866 651.30748437 -267 653 C-266.98839844 653.96421875 -266.97679687 654.9284375 -266.96484375 655.921875 C-266.95582031 657.18515625 -266.94679688 658.4484375 -266.9375 659.75 C-266.92009766 661.62945313 -266.92009766 661.62945313 -266.90234375 663.546875 C-266.98101349 666.32863714 -267.27135941 668.3678174 -268 671 C-277.7479312 672.4472599 -287.44154104 671.83501058 -297.23706055 671.33081055 C-300.08662041 671.18627658 -302.93662188 671.06028774 -305.78710938 670.93554688 C-307.59901246 670.84746055 -309.41086406 670.75830728 -311.22265625 670.66796875 C-312.07465103 670.63140671 -312.92664581 670.59484467 -313.80445862 670.55717468 C-319.7704407 670.2295593 -319.7704407 670.2295593 -322 668 C-322.6005912 660.92335925 -322.02571061 653.74118524 -321.46484375 646.67578125 C-321.37912109 645.46212891 -321.29339844 644.24847656 -321.20507812 642.99804688 C-321.02564492 640.52658368 -320.81166091 638.05740327 -320.56445312 635.59179688 C-320.12974261 628.49656525 -320.65150691 624.5594015 -325.25 618.98046875 C-326.81928439 617.30702628 -328.40097738 615.64505011 -330 614 C-331.47567069 612.05243175 -332.74579561 610.06353672 -334.0625 608 C-337.34231953 602.94855104 -340.81916576 598.09422332 -344.43359375 593.27734375 C-347.2297686 589.21208206 -347.35511368 585.83654823 -347 581 C-345.95507104 578.36062903 -344.89962235 576.03872148 -343.5625 573.5625 C-343.02061035 572.52488525 -343.02061035 572.52488525 -342.46777344 571.46630859 C-341.32835406 569.30160771 -340.16632452 567.15030331 -339 565 C-338.64728027 564.33758301 -338.29456055 563.67516602 -337.93115234 562.99267578 C-332.77494953 553.32871268 -326.95840602 544.20794099 -320.796875 535.15625 C-318.08831816 531.17064063 -315.52238703 527.10544045 -313 523 C-313.8146875 522.78214844 -314.629375 522.56429687 -315.46875 522.33984375 C-319.93485135 520.64529423 -323.56592219 518.24140564 -327.5 515.5625 C-328.29462646 515.02391357 -329.08925293 514.48532715 -329.90795898 513.93041992 C-348.33381738 501.31663331 -364.41767526 486.65473746 -377.75585938 468.65869141 C-379.01321098 466.98238709 -380.30418748 465.3384837 -381.609375 463.69921875 C-397.26196171 443.97819593 -409.32865138 420.29837204 -409.0625 394.625 C-409.05798828 393.79355469 -409.05347656 392.96210937 -409.04882812 392.10546875 C-409.03713164 390.07028103 -409.01919935 388.03513077 -409 386 C-407.35 385.67 -405.7 385.34 -404 385 C-404 385.66 -404 386.32 -404 387 C-403.01 387.3403125 -403.01 387.3403125 -402 387.6875 C-399.54349636 388.76222034 -397.69590657 389.83305447 -395.5 391.3125 C-385.41854812 397.78383197 -372.92116938 401.86839348 -360.92578125 399.609375 C-350.36304739 396.26700891 -342.5696897 386.6961085 -335.01953125 379.03125 C-331.50886008 375.48062349 -327.81087447 372.22302681 -324 369 C-322.95187505 368.07824228 -321.90512787 367.15491676 -320.859375 366.23046875 C-301.94709878 349.59924354 -280.89102001 336.70446873 -256.87792969 328.99804688 C-254.53398341 328.24527568 -252.19141626 327.48819952 -249.85009766 326.72729492 C-247.51860979 325.97295282 -245.18253161 325.23259554 -242.84130859 324.5090332 C-223.19625783 318.20248446 -211.98960367 306.81067327 -200.76464844 290.16845703 C-187.53152447 270.57046181 -174.0630956 255.0170619 -153.21459961 243.23266602 C-146.2659505 239.22350941 -140.593023 233.77906901 -138 226 C-136.98157043 207.21780846 -140.19837538 189.80142198 -144.72583008 171.65234375 C-148.70909875 155.41582929 -151.55802496 138.73740253 -152 122 C-152.03996094 120.76378906 -152.07992188 119.52757812 -152.12109375 118.25390625 C-152.54045729 94.15283718 -145.94200949 73.78711468 -129.37744141 56.16479492 C-121.58505524 48.31719136 -112.44073026 42.49358449 -102.625 37.5 C-101.66267456 37.01031738 -101.66267456 37.01031738 -100.6809082 36.51074219 C-96.20302328 34.34027686 -91.91529839 32.8548345 -87 32 C-86.3495874 32.32613281 -85.6991748 32.65226562 -85.02905273 32.98828125 C-82.55455013 34.22210856 -81.44597916 34.05161584 -78.76171875 33.53125 C-77.54331299 33.29801025 -77.54331299 33.29801025 -76.30029297 33.06005859 C-75.43807129 32.87523926 -74.57584961 32.69041992 -73.6875 32.5 C-72.7917627 32.31131348 -71.89602539 32.12262695 -70.97314453 31.92822266 C-52.84148188 27.89788522 -36.32748382 18.9863416 -21.5859375 7.828125 C-15.21317362 3.32290824 -8.03788506 -1.39789305 0 0 Z " fill="#000000" transform="translate(679,124)"/>
<path d="M0 0 C0.66 0 1.32 0 2 0 C2 0.66 2 1.32 2 2 C2.66 2 3.32 2 4 2 C4 2.66 4 3.32 4 4 C3.01 4 2.02 4 1 4 C0.67 2.68 0.34 1.36 0 0 Z " fill="#000000" transform="translate(507,816)"/>
<path d="M0 0 C0.99 0.33 1.98 0.66 3 1 C2.01 1 1.02 1 0 1 C0 0.67 0 0.34 0 0 Z " fill="#000000" transform="translate(581,821)"/>
<path d="M0 0 C4 1 4 1 4 1 Z " fill="#000000" transform="translate(0,566)"/>
<path d="M0 0 C2 1 2 1 2 1 Z " fill="#000000" transform="translate(262,886)"/>
<path d="" fill="#000000" transform="translate(0,0)"/>
<path d="" fill="#000000" transform="translate(0,0)"/>
</svg>
